<svg xmlns="http://www.w3.org/2000/svg" viewBox="0 0 405.53 126.39"><defs><style>.cls-1{font-size:28.81px;stroke-width:0.5px;letter-spacing:0.05em;}.cls-1,.cls-10{stroke:#000;stroke-miterlimit:10;}.cls-1,.cls-3{font-family:Norwester-Regular, Norwester;}.cls-2{font-size:25.38px;letter-spacing:0.06em;}.cls-3{font-size:39.17px;letter-spacing:0.05em;}.cls-4{letter-spacing:0.04em;}.cls-5{letter-spacing:0.06em;}.cls-6{letter-spacing:0.03em;}.cls-7{letter-spacing:0.04em;}.cls-8{letter-spacing:-0.02em;}.cls-9{letter-spacing:0.05em;}.cls-10{fill:none;stroke-width:5px;}</style></defs><title>logo[mop_concept_one]</title><g id="Layer_2" data-name="Layer 2"><text class="cls-1" transform="translate(11.57 108.96) scale(1.3 1)">o<tspan class="cls-2" x="15.99" y="0">F</tspan></text></g><g id="Layer_4" data-name="Layer 4"><text class="cls-3" transform="translate(56.71 120.36) scale(1.13 1)">P<tspan class="cls-4" x="21.35" y="0">R</tspan><tspan class="cls-5" x="42.73" y="0">OC</tspan><tspan class="cls-6" x="86.25" y="0">RA</tspan><tspan class="cls-7" x="131.18" y="0">S</tspan><tspan class="cls-5" x="152.14" y="0">TIN</tspan><tspan class="cls-8" x="206.51" y="0">A</tspan><tspan class="cls-9" x="228.48" y="0">TION</tspan></text></g><g id="Layer_3" data-name="Layer 3"><line class="cls-10" x1="12.71" y1="115.89" x2="46.71" y2="115.89"/></g><g id="Layer_1" data-name="Layer 1"><path d="M77.73,97.61H95.22v76H81.34V117.58l.77,3.35L67.63,162.66H56.88L42.4,122l.89-4.4v56.06h-14v-76h17.6l15.36,46.22Z" transform="translate(-29.29 -97.61)"/><path d="M109.49,172.07V106.44c0-1,.59-1.57,1.77-1.57h11.55c1.18,0,1.77.52,1.77,1.57v65.63c0,1.05-.59,1.57-1.77,1.57H111.26C110.08,173.64,109.49,173.12,109.49,172.07Z" transform="translate(-29.29 -97.61)"/><path d="M172.09,104.87h10.44c1.18,0,1.77.52,1.77,1.57v65.63c0,1.05-.59,1.57-1.77,1.57h-8.77a2.13,2.13,0,0,1-2-1.27l-20.87-37.54v37.24c0,1.05-.59,1.57-1.78,1.57H138.68c-1.18,0-1.78-.52-1.78-1.57V106.44c0-1,.6-1.57,1.78-1.57h8.77a2.15,2.15,0,0,1,2,1.28l20.87,37.53V106.44C170.32,105.39,170.91,104.87,172.09,104.87Z" transform="translate(-29.29 -97.61)"/><path d="M196.62,172.07V106.44c0-1,.59-1.57,1.78-1.57h11.54c1.18,0,1.78.52,1.78,1.57v65.63c0,1.05-.6,1.57-1.78,1.57H198.4C197.21,173.64,196.62,173.12,196.62,172.07Z" transform="translate(-29.29 -97.61)"/><path d="M240,104.87h12.43q7.77,0,11.88,3.63T268.44,119v6.48c0,1-.6,1.57-1.78,1.57H255.45c-1.18,0-1.78-.52-1.78-1.57v-4.13c0-2.61-1.48-3.93-4.44-3.93h-6.1c-3,0-4.44,1.32-4.44,3.93v8.36l26.86,7.66a3.58,3.58,0,0,1,2.89,3.63V159.5q0,6.87-4.11,10.51t-11.88,3.63H240q-7.77,0-11.87-3.63T224,159.5v-6.39c0-1.05.59-1.57,1.77-1.57H237c1.19,0,1.78.52,1.78,1.57v4.13q0,3.93,4.44,3.93h6q4.44,0,4.44-3.93v-9.93L227,139.65q-3-.89-3-3.64V119q0-6.88,4.11-10.52T240,104.87Z" transform="translate(-29.29 -97.61)"/><path d="M319.61,106.44v9.83c0,1-.59,1.57-1.78,1.57H305v54.23c0,1.05-.6,1.57-1.78,1.57H291.64c-1.19,0-1.78-.52-1.78-1.57V117.84H277c-1.19,0-1.78-.53-1.78-1.57v-9.83c0-1,.59-1.57,1.78-1.57h40.84C319,104.87,319.61,105.39,319.61,106.44Z" transform="translate(-29.29 -97.61)"/><path d="M374.11,119v19.74q0,8.55-6.22,12l5.78,21.12q.43,1.77-1.56,1.77H361.23a1.71,1.71,0,0,1-1.88-1.37L354,152.91h-9.88v19.16c0,1.05-.59,1.57-1.78,1.57H331.49c-1.19,0-1.78-.52-1.78-1.57V106.44c0-1,.59-1.57,1.78-1.57h26.64q7.75,0,11.87,3.63T374.11,119Zm-30,21.22h11.1q4.44,0,4.44-3.93V121.47q0-3.93-4.44-3.93h-11.1Z" transform="translate(-29.29 -97.61)"/><path d="M421.73,104.87h11.1a2,2,0,0,1,1.72.64,1.48,1.48,0,0,1,.05,1.62L414.29,147.9v23.78c0,1.31-.74,2-2.22,2H401.42c-1.49,0-2.22-.65-2.22-2V147.9l-20.32-40.77a1.5,1.5,0,0,1,.06-1.62,2,2,0,0,1,1.72-.64h11.1a2.5,2.5,0,0,1,2.55,1.57l12.43,25.25,12.44-25.25A2.5,2.5,0,0,1,421.73,104.87Z" transform="translate(-29.29 -97.61)"/></g></svg>